<svg class="footer_svg" version="1.1" id="Layer_1" xmlns="http://www.w3.org/2000/svg" xmlns:xlink="http://www.w3.org/1999/xlink" x="0px" y="0px" viewBox="-37 295.9 537 202.1" style="enable-background:new -37 295.9 537 202.1;" xml:space="preserve">
			  <style type="text/css">
			    .st0 {
			      fill: #F8D798;
			    }
			    .st1 {
			      fill: #E21D38;
			    }
			    .st2 {
			      fill: #F9D0C5;
			    }
			    .st3 {
			      fill: #EDB21F;
			    }
			    .st4 {
			      fill: none;
			      stroke: #FFFFFF;
			      stroke-width: 0.787;
			      stroke-miterlimit: 10;
			    }
			    .st5 {
			      fill: #F09485;
			    }
			    .st6 {
			      fill: #BFAAD1;
			    }
			    .st7 {
			      fill: #926AAB;
			    }
			    .st8 {
			      fill: #6F2B8B;
			    }

			    #circle {
			      -webkit-animation: blink 3s infinite linear;
			      -moz-animation: blink 3s infinite linear;
			      -o-animation: blink 3s infinite linear;
			      animation: blink 3s infinite linear;
			      -webkit-transform-origin: 100% 50%;
			      -moz-transform-origin: 100% 50%;
			      -ms-transform-origin: 100% 50%;
			      -o-transform-origin: 100% 50%;
			      transform-origin: 100% 50%;
			    }

			    @-webkit-keyframes blink {
			      0% {
			        -webkit-transform: rotateX(80deg);
			      }
			      70% {
			        -webkit-transform: rotateX(80deg);
			      }
			      75% {
			        -webkit-transform: rotateX(0deg);
			      }
			      80% {
			        -webkit-transform: rotateX(80deg);
			      }
			      100% {
			        -webkit-transform: rotateX(80deg);
			      }
			    }

			    <!-- svg{
			    -webkit-animation: nighteffect 10s ease-in-out alternate infinite;

			    } -->
			    @-webkit-keyframes nighteffect {
			    0% {
			    opacity: :1;
			    }
			    25%{
			    opacity: :1;
			    }
			    50%{
			    opacity: 0.3;
			    }
			    75%{
			    opacity: :1;
			    }
			    100% {
			    opacity: :1;
			    }
			    }

			    footer{
			    -webkit-animation: back 10s ease-in-out alternate infinite;

			    }
			    @-webkit-keyframes back {
			    0% {
			    background:white;
			    }
			    25%{
			    background:white;
			    }
			    50%{
			    background: #04122A;
			    }
			    75%{
			    background:white;
			    }
			    100% {
			    background:white;
			    }
			    }


			    #Layer_6{
			    position: absolute;
			      -webkit-animation: sunanimation 10s ease-in-out alternate infinite;

			    }
			    @-webkit-keyframes sunanimation {
			    0% {
			    -webkit-transform: rotate(0deg);
			    }
			    25%{
			    -webkit-transform: rotate(0deg);
			    }
			    50%{
			    -webkit-transform: rotate(20deg);
			    }
			    75%{
			    -webkit-transform: rotate(0deg);
			    }
			    100% {
			    -webkit-transform: rotate(0deg);
			    }
			    }


			    #Layer_13{
			     position: absolute;
			    -webkit-animation: floweranimation 7s ease-in-out alternate infinite;

			    -webkit-transform-origin: bottom center;
			    }

			    @-webkit-keyframes floweranimation {
			    0% {
			     -webkit-transform: rotate(-2deg);
			    }
			    50%{
			     -webkit-transform: rotate(2deg);
			    }
			    100% {
			     -webkit-transform: rotate(-2deg);
			    }
			    }

			    #tree_{
			     position: absolute;
			    -webkit-animation: floweranimation 7s ease-in-out alternate infinite;

			    -webkit-transform-origin: bottom center;
			    }

			    @-webkit-keyframes floweranimation {
			    0% {
			     -webkit-transform: rotate(-3deg);
			    }
			    50%{
			     -webkit-transform: rotate(3deg);
			    }
			    100% {
			     -webkit-transform: rotate(-3deg);
			    }
			    }




			  </style>
			  <g id="Layer_6">
			    <path id="XMLID_55_" class="st0" d="M433.2,356.7c-3.3,3.6-5.4,8.4-5.6,13.6l9.1-4.2L433.2,356.7z"></path>
			    <path id="XMLID_54_" class="st0" d="M464.2,355.1c-3.6-3.3-8.4-5.4-13.6-5.6l4.2,9.1L464.2,355.1z"></path>
			    <path id="XMLID_53_" class="st0" d="M471.4,370.3c-0.3-5.2-2.3-9.9-5.6-13.6l-3.5,9.4L471.4,370.3z"></path>
			    <path id="XMLID_52_" class="st0" d="M448.4,349.5c-5.2,0.3-9.9,2.3-13.6,5.6l9.4,3.5L448.4,349.5z"></path>
			    <path id="XMLID_51_" class="st0" d="M450.6,393.3c5.2-0.3,9.9-2.3,13.6-5.6l-9.4-3.5L450.6,393.3z"></path>
			    <path id="XMLID_50_" class="st0" d="M465.8,386.1c3.3-3.6,5.4-8.4,5.6-13.6l-9.1,4.2L465.8,386.1z"></path>
			    <path id="XMLID_49_" class="st0" d="M427.6,372.5c0.3,5.2,2.3,9.9,5.6,13.6l3.5-9.4L427.6,372.5z"></path>
			    <path id="XMLID_48_" class="st0" d="M434.8,387.7c3.6,3.3,8.4,5.4,13.6,5.6l-4.2-9.1L434.8,387.7z"></path>
			    <path id="XMLID_47_" class="st0" d="M461.2,371.4c0-6.5-5.2-11.7-11.7-11.7s-11.7,5.2-11.7,11.7s5.2,11.7,11.7,11.7
					S461.2,377.9,461.2,371.4"></path>
			  </g>
			  <g id="Layer_10">
			    <path id="XMLID_109_" class="st1" d="M201.3,472.3c-0.7,0-1.3-0.6-1.3-1.3v-97.3c0-0.7,0.6-1.3,1.3-1.3c0.7,0,1.3,0.6,1.3,1.3V471
					C202.6,471.7,202,472.3,201.3,472.3"></path>
			    <path id="XMLID_105_" class="st1" d="M226.2,336.8c5.2-3.7,6.9-10.8,3.6-16.5c-3.3-5.6-10.3-7.8-16.1-5.1
					c-0.6-6.4-5.9-11.4-12.5-11.4c-6.5,0-11.9,5-12.5,11.4c-5.8-2.7-12.8-0.5-16.1,5.1c-3.3,5.7-1.6,12.8,3.6,16.5
					c-5.2,3.7-6.9,10.8-3.6,16.5s10.3,7.8,16.1,5.1c0.6,6.4,5.9,11.4,12.5,11.4c6.5,0,11.9-5,12.5-11.4c5.8,2.7,12.8,0.5,16.1-5.1
					C233.1,347.6,231.4,340.5,226.2,336.8 M201.3,348.3c-6.4,0-11.5-5.2-11.5-11.5s5.2-11.5,11.5-11.5c6.4,0,11.5,5.2,11.5,11.5
					S207.7,348.3,201.3,348.3"></path>
			    <path id="XMLID_104_" class="st1" d="M191.4,396.8c-3.5,2-5.8,5.7-5.8,10s2.3,8,5.8,10c3.5-2,5.8-5.7,5.8-10
					S194.8,398.8,191.4,396.8"></path>
			    <path id="XMLID_103_" class="st1" d="M191.4,383.9c-3.5,2-5.8,5.7-5.8,10s2.3,8,5.8,10c3.5-2,5.8-5.7,5.8-10
					S194.8,385.9,191.4,383.9"></path>
			    <path id="XMLID_102_" class="st1" d="M175.2,400.4c2,3.5,5.7,5.8,10,5.8s8-2.3,10-5.8c-2-3.5-5.7-5.8-10-5.8
					S177.2,396.9,175.2,400.4"></path>
			    <path id="XMLID_101_" class="st1" d="M210.6,421.3c3.5-2,5.8-5.7,5.8-10s-2.3-8-5.8-10c-3.5,2-5.8,5.7-5.8,10
					C204.9,415.6,207.2,419.3,210.6,421.3"></path>
			    <path id="XMLID_100_" class="st1" d="M210.6,434.3c3.5-2,5.8-5.7,5.8-10s-2.3-8-5.8-10c-3.5,2-5.8,5.7-5.8,10
					S207.2,432.3,210.6,434.3"></path>
			    <path id="XMLID_99_" class="st1" d="M226.9,417.8c-2-3.5-5.7-5.8-10-5.8s-8,2.3-10,5.8c2,3.5,5.7,5.8,10,5.8
					C221.1,423.6,224.9,421.2,226.9,417.8"></path>
			  </g>
			  <path class="st2" d="M181.7,498h122.5c19.6-5.2,32-12.8,32-21.3c0-15.5-41.7-28.1-93.1-28c-51.3,0-93,12.7-93,28.2
				C150.1,485.3,162.3,492.9,181.7,498z"></path>
			  <g id="XMLID_1_">
			    <path id="tree_" class="st3" d="M381.9,411.7c0,0-10.2-24.7,7.3-43.3c0,0,10.9-10.7,16.1-6.2c0,0,2.9,7-1.9,11.8l-4.3-2.6
					l3.2,5.5c0,0-2,9-7.5,14.1l-6.2-2.8l4.2,9C392.8,397.4,388.4,406.8,381.9,411.7"></path>
			    <path id="tree_" class="st4" d="M381.9,411.7c0,0-10.2-24.7,7.3-43.3c0,0,10.9-10.7,16.1-6.2c0,0,2.9,7-1.9,11.8l-4.3-2.6
					l3.2,5.5c0,0-2,9-7.5,14.1l-6.2-2.8l4.2,9C392.8,397.4,388.4,406.8,381.9,411.7z"></path>
			    <path id="tree_" class="st3" d="M382.5,418.4c0,0,11.2-30.5-5.3-50c0,0-10.3-11.3-15.8-7c0,0-3.3,6.9,1.3,11.9l4.4-2.3
					l-3.5,5.3c0,0,1.5,9,6.7,14.5l6.4-2.4l-4.6,8.7C372.1,397.2,376.3,413.2,382.5,418.4"></path>
			    <path id="tree_" class="st4" d="M382.5,418.4c0,0,11.2-30.5-5.3-50c0,0-10.3-11.3-15.8-7c0,0-3.3,6.9,1.3,11.9l4.4-2.3
					l-3.5,5.3c0,0,1.5,9,6.7,14.5l6.4-2.4l-4.6,8.7C372.1,397.2,376.3,413.2,382.5,418.4z"></path>
			    <path id="tree_" class="st3" d="M382.1,415.1c0,0-3-25.7-22.4-33.7c0,0-11.8-4.4-14.2,0.8c0,0,0.1,6.3,5.4,8.3l2.4-3.4
					l-0.6,5.2c0,0,4.5,6.1,10.4,8.1l3.8-4.2l-0.1,8.1C366.8,404.3,375.6,413.6,382.1,415.1"></path>
			    <path id="tree_" class="st4" d="M382.1,415.1c0,0-3-25.7-22.4-33.7c0,0-11.8-4.4-14.2,0.8c0,0,0.1,6.3,5.4,8.3l2.4-3.4
					l-0.6,5.2c0,0,4.5,6.1,10.4,8.1l3.8-4.2l-0.1,8.1C366.8,404.3,375.6,413.6,382.1,415.1z"></path>
			    <path id="tree_" class="st3" d="M378.9,416.9c0,0,2.8-25.5,22.1-33.7c0,0,11.8-4.5,14.2,0.6c0,0-0.1,6.3-5.3,8.3l-2.4-3.3
					l0.6,5.2c0,0-4.4,6.1-10.3,8.2l-3.8-4.1l0.2,8.1C394.2,406.3,385.4,415.4,378.9,416.9"></path>
			    <path id="tree_" class="st4" d="M378.9,416.9c0,0,2.8-25.5,22.1-33.7c0,0,11.8-4.5,14.2,0.6c0,0-0.1,6.3-5.3,8.3l-2.4-3.3
					l0.6,5.2c0,0-4.4,6.1-10.3,8.2l-3.8-4.1l0.2,8.1C394.2,406.3,385.4,415.4,378.9,416.9z"></path>
			    <path id="XMLID_77_" class="st3" d="M387.1,433.2v-9.7v-14.2c0,0-5.5,0-5.5,10.1v3.6v10.3L387.1,433.2L387.1,433.2z"></path>
			    <path id="XMLID_76_" class="st4" d="M387.1,433.2v-9.7v-14.2c0,0-5.5,0-5.5,10.1v3.6v10.3L387.1,433.2L387.1,433.2z"></path>
			    <path id="XMLID_75_" class="st3" d="M388.1,449.2v-11.6v-16.9c0,0-6.6,0-6.6,12.1v4.2v12.2L388.1,449.2L388.1,449.2z"></path>
			    <path id="XMLID_74_" class="st4" d="M388.1,449.2v-11.6v-16.9c0,0-6.6,0-6.6,12.1v4.2v12.2L388.1,449.2L388.1,449.2z"></path>
			    <path id="XMLID_73_" class="st3" d="M388.8,463.4v-11.6v-16.9c0,0-7.3,0-7.3,12.1v4.2v12.2H388.8z"></path>
			    <path id="XMLID_72_" class="st4" d="M388.8,463.4v-11.6v-16.9c0,0-7.3,0-7.3,12.1v4.2v12.2H388.8z"></path>
			    <path id="XMLID_71_" class="st3" d="M389.6,477.7v-11.6v-16.9c0,0-8,0-8,12.1v4.2v12.2L389.6,477.7L389.6,477.7z"></path>
			    <path id="XMLID_70_" class="st4" d="M389.6,477.7v-11.6v-16.9c0,0-8,0-8,12.1v4.2v12.2L389.6,477.7L389.6,477.7z"></path>
			    <path id="XMLID_69_" class="st3" d="M376.2,432.7V423v-14.2c0,0,5.5,0,5.5,10.1v3.6v10.3L376.2,432.7L376.2,432.7z"></path>
			    <path id="XMLID_68_" class="st4" d="M376.2,432.7V423v-14.2c0,0,5.5,0,5.5,10.1v3.6v10.3L376.2,432.7L376.2,432.7z"></path>
			    <path id="XMLID_67_" class="st3" d="M375.1,449.2v-11.6v-16.9c0,0,6.6,0,6.6,12.1v4.2v12.2L375.1,449.2L375.1,449.2z"></path>
			    <path id="XMLID_66_" class="st4" d="M375.1,449.2v-11.6v-16.9c0,0,6.6,0,6.6,12.1v4.2v12.2L375.1,449.2L375.1,449.2z"></path>
			    <path id="XMLID_65_" class="st3" d="M374.4,463.4v-11.6v-16.9c0,0,7.3,0,7.3,12.1v4.2v12.2H374.4z"></path>
			    <path id="XMLID_64_" class="st4" d="M374.4,463.4v-11.6v-16.9c0,0,7.3,0,7.3,12.1v4.2v12.2H374.4z"></path>
			    <path id="XMLID_63_" class="st3" d="M373.7,477.7v-11.6v-16.9c0,0,8,0,8,12.1v4.2v12.2L373.7,477.7L373.7,477.7z"></path>
			    <path id="XMLID_62_" class="st4" d="M373.7,477.7v-11.6v-16.9c0,0,8,0,8,12.1v4.2v12.2L373.7,477.7L373.7,477.7z"></path>
			    <path id="tree_" class="st3" d="M381.3,414.5c0,0-4.1-17.2-25.9-14.5c0,0-9.9,2-9.4,6.5c0,0,2.8,4.2,7.2,3.4l0.2-3.3l1.8,3.8
					c0,0,5.6,2.3,10.5,1.1l0.8-4.4l3.4,5.6C369.9,412.7,376.2,416.2,381.3,414.5"></path>
			    <path id="tree_" class="st4" d="M381.3,414.5c0,0-4.1-17.2-25.9-14.5c0,0-9.9,2-9.4,6.5c0,0,2.8,4.2,7.2,3.4l0.2-3.3l1.8,3.8
					c0,0,5.6,2.3,10.5,1.1l0.8-4.4l3.4,5.6C369.9,412.7,376.2,416.2,381.3,414.5z"></path>
			    <path id="tree_" class="st3" d="M382.1,414.5c0,0,4.9-17.2,26.3-14.2c0,0,9.9,2,9.3,6.6c0,0-2.8,4.2-7.2,3.3l-0.2-3.3l-1.9,3.8
					c0,0-5.7,2.2-10.5,1l-0.8-4.4l-3.4,5.6C393.8,412.8,387.2,416.3,382.1,414.5"></path>
			    <path id="tree_" class="st4" d="M382.1,414.5c0,0,4.9-17.2,26.3-14.2c0,0,9.9,2,9.3,6.6c0,0-2.8,4.2-7.2,3.3l-0.2-3.3l-1.9,3.8
					c0,0-5.7,2.2-10.5,1l-0.8-4.4l-3.4,5.6C393.8,412.8,387.2,416.3,382.1,414.5z"></path>
			  </g>
			  <g id="Layer_8">
			    <path id="XMLID_96_" class="st5" d="M278.4,366.5c3.4-2.4,4.5-7.1,2.4-10.9c-2.2-3.7-6.8-5.1-10.6-3.4c-0.4-4.2-3.9-7.5-8.2-7.5
					c-4.3,0-7.8,3.3-8.2,7.5c-3.8-1.8-8.5-0.4-10.6,3.4s-1.1,8.4,2.4,10.9c-3.4,2.4-4.5,7.1-2.4,10.9s6.8,5.1,10.6,3.4
					c0.4,4.2,3.9,7.5,8.2,7.5c4.3,0,7.8-3.3,8.2-7.5c3.8,1.8,8.5,0.4,10.6-3.4S281.9,368.9,278.4,366.5 M261.9,374.1
					c-4.2,0-7.6-3.4-7.6-7.6s3.4-7.6,7.6-7.6s7.6,3.4,7.6,7.6C269.6,370.7,266.2,374.1,261.9,374.1"></path>
			    <path id="XMLID_95_" class="st5" d="M261.9,479.3c-0.5,0-0.9-0.4-0.9-0.9v-87.6c0-0.5,0.4-0.9,0.9-0.9s0.9,0.4,0.9,0.9v87.6
					C262.8,478.9,262.4,479.3,261.9,479.3"></path>
			    <path id="XMLID_94_" class="st5" d="M268.1,410.4c2.3-1.3,3.8-3.8,3.8-6.6c0-2.8-1.5-5.3-3.8-6.6c-2.3,1.3-3.8,3.8-3.8,6.6
					S265.8,409,268.1,410.4"></path>
			    <path id="XMLID_93_" class="st5" d="M268.1,418.9c2.3-1.3,3.8-3.8,3.8-6.6c0-2.8-1.5-5.3-3.8-6.6c-2.3,1.3-3.8,3.8-3.8,6.6
					S265.8,417.6,268.1,418.9"></path>
			    <path id="XMLID_92_" class="st5" d="M278.8,408c-1.3-2.3-3.8-3.8-6.6-3.8c-2.8,0-5.3,1.5-6.6,3.8c1.3,2.3,3.8,3.8,6.6,3.8
					C275.1,411.8,277.5,410.3,278.8,408"></path>
			    <path id="XMLID_91_" class="st5" d="M255.8,414c-2.3,1.3-3.8,3.8-3.8,6.6c0,2.8,1.5,5.3,3.8,6.6c2.3-1.3,3.8-3.8,3.8-6.6
					C259.6,417.7,258.1,415.3,255.8,414"></path>
			    <path id="XMLID_90_" class="st5" d="M255.8,405.4c-2.3,1.3-3.8,3.8-3.8,6.6c0,2.8,1.5,5.3,3.8,6.6c2.3-1.3,3.8-3.8,3.8-6.6
					S258.1,406.8,255.8,405.4"></path>
			    <path id="XMLID_89_" class="st5" d="M245.1,416.3c1.3,2.3,3.8,3.8,6.6,3.8c2.8,0,5.3-1.5,6.6-3.8c-1.3-2.3-3.8-3.8-6.6-3.8
					C248.9,412.5,246.4,414,245.1,416.3"></path>
			  </g>
			  <g id="Layer_7">
			    <path id="XMLID_43_" class="st3" d="M342.8,416.9c-1.4-2.8-7.4-2.6-13.4,0.5c-1.8,0.9-3.3,2-4.6,3.1c0.7-1.6,1.2-3.4,1.6-5.3
					c1.2-6.6-0.3-12.4-3.4-13s-6.6,4.3-7.8,10.9c-0.5,2.6-0.5,5-0.2,7.1c-3.9,2-6.2,5.1-5.2,7.1s4.9,1.9,8.8-0.1c0.9-0.4,1.7-1,2.4-1.5
					c-0.3,0.8-0.6,1.7-0.8,2.7c-0.8,4.3,0.3,8.1,2.4,8.5s4.5-2.8,5.3-7c2.1-0.3,4.4-1.1,6.7-2.3C340.5,424.4,344.2,419.7,342.8,416.9
					 M320.9,407.2c-0.6-0.5-0.7-1.3-0.3-1.9c0.5-0.6,1.3-0.7,1.9-0.3c0.6,0.5,0.7,1.3,0.3,1.9C322.4,407.5,321.5,407.7,320.9,407.2
					 M338.5,420.3c-0.6-0.5-0.7-1.3-0.3-1.9c0.5-0.6,1.3-0.7,1.9-0.3c0.6,0.5,0.7,1.3,0.3,1.9C340,420.6,339.1,420.8,338.5,420.3"></path>
			  </g>
			  <g id="Layer_9">
			    <path id="XMLID_86_" class="st1" d="M286.7,321.7c-0.1-0.1-0.2-0.1-0.4-0.2c-0.5-2.3-2.5-4-5-4c-1.3,0-2.5,0.5-3.4,1.3
					c-1-2.7-2.4-4.2-2.4-4.2c-0.8,1-1.3,2.2-1.7,3.5c-1-1.1-1.8-1.7-1.8-1.7c-2.1,2.8-2,6.7-1.6,9.1c-0.5,0.4-0.9,0.5-0.9,0.5
					c-8.9,5.5-13.9-1-13.9-1c0,5.1,7.6,9.4,13.8,10c0,0,13.3,2,16.4-10.2c0.2,0.5,0.4,1,0.5,1.5c0.4-0.2,0.8-0.5,1.1-1
					C288.3,324.1,287.9,322.5,286.7,321.7 M282.2,322.4c-0.6,0-1-0.4-1-1s0.4-1,1-1s1,0.4,1,1S282.7,322.4,282.2,322.4"></path>
			  </g>
			  <g id="Layer_13">
			    <path id="XMLID_32_" class="st6" d="M93.4,373.4c-4.4,0-7.9,3.5-7.9,7.9s3.5,7.9,7.9,7.9s7.9-3.5,7.9-7.9
					C101.3,377,97.8,373.4,93.4,373.4"></path>
			    <path id="XMLID_31_" class="st6" d="M98.7,364.4l0.1,2.3l0.2,4.9l4.3-2.3l2-1.1l0,0c0.7-0.3,1.2-0.8,1.6-1.5c1.1-2,0.3-4.6-1.8-5.8
					c-2.1-1.2-4.8-0.6-5.9,1.3C98.9,362.9,98.7,363.7,98.7,364.4L98.7,364.4z"></path>
			    <path id="XMLID_30_" class="st6" d="M89.6,364l1.2,2l2.6,4.2L96,366l1.2-2l0,0c0.4-0.6,0.6-1.3,0.6-2.1c0-2.3-2-4.1-4.5-4.1
					s-4.5,1.8-4.5,4.1C88.9,362.7,89.2,363.4,89.6,364L89.6,364z"></path>
			    <path id="XMLID_29_" class="st6" d="M81.4,368.2L81.4,368.2l2,1.1l4.3,2.3l0.2-4.9l0.1-2.3l0,0c0-0.7-0.1-1.5-0.5-2.1
					c-1.1-2-3.8-2.6-5.9-1.3c-2.1,1.2-3,3.8-1.8,5.8C80.2,367.4,80.7,367.9,81.4,368.2"></path>
			    <path id="XMLID_28_" class="st6" d="M103.5,415L103.5,415c-0.7-0.5-1.6-0.7-2.5-0.7c-2.7,0-4.9,2.4-4.9,5.3s2.2,5.3,4.9,5.3
					c0.9,0,1.8-0.3,2.5-0.7l2.3-1.5l5-3.1l-5-3.1L103.5,415z"></path>
			    <path id="XMLID_27_" class="st6" d="M106.5,369.3L106.5,369.3l-1.1,2l-2.3,4.4l4.9,0.2l2.3,0.1l0,0c0.7,0,1.5-0.1,2.1-0.5
					c2-1.1,2.6-3.8,1.3-5.9c-1.2-2.1-3.8-3-5.8-1.8C107.3,368.1,106.8,368.7,106.5,369.3"></path>
			    <path id="XMLID_26_" class="st6" d="M85.8,422.3c-0.9,0-1.8,0.3-2.5,0.8l0,0l-2.3,1.5l-5,3.1l5,3.1l2.3,1.5l0,0
					c0.7,0.5,1.6,0.8,2.5,0.8c2.7,0,4.9-2.4,4.9-5.3C90.7,424.7,88.5,422.3,85.8,422.3"></path>
			    <path id="XMLID_25_" class="st6" d="M74.3,375.5c0.7,0.4,1.4,0.5,2.1,0.5l0,0l2.3-0.1l4.9-0.2l-2.3-4.3l-1.1-2l0,0
					c-0.3-0.7-0.8-1.2-1.5-1.6c-2-1.1-4.6-0.3-5.8,1.8C71.8,371.7,72.4,374.3,74.3,375.5"></path>
			    <path id="XMLID_24_" class="st6" d="M112.5,387.2c-0.7-0.4-1.4-0.5-2.1-0.5l0,0l-2.3,0.1l-4.9,0.2l2.3,4.4l1.1,2
					c0.3,0.7,0.8,1.2,1.5,1.6c2,1.1,4.6,0.3,5.8-1.8C115,391,114.4,388.3,112.5,387.2"></path>
			    <path id="XMLID_23_" class="st6" d="M112.8,376.9c-0.8,0-1.5,0.2-2.1,0.6l0,0l-1.9,1.2l-4.2,2.6l4.2,2.6l1.9,1.2l0,0
					c0.6,0.4,1.3,0.6,2.1,0.6c2.3,0,4.1-2,4.1-4.5C117,378.9,115.1,376.9,112.8,376.9"></path>
			    <path id="XMLID_22_" class="st6" d="M105.4,394.4L105.4,394.4l-2-1.1l-4.3-2.3l-0.2,4.9l-0.1,2.3l0,0c0,0.7,0.1,1.5,0.5,2.1
					c1.1,2,3.8,2.6,5.9,1.3c2.1-1.2,3-3.8,1.8-5.8C106.6,395.3,106.1,394.8,105.4,394.4"></path>
			    <path id="XMLID_21_" class="st6" d="M76.1,385.2L76.1,385.2L78,384l4.2-2.6l-4.2-2.6l-1.9-1.2l0,0c-0.6-0.4-1.3-0.6-2.1-0.6
					c-2.3,0-4.1,2-4.1,4.5s1.8,4.5,4.1,4.5C74.7,385.8,75.4,385.6,76.1,385.2"></path>
			    <path id="XMLID_18_" class="st6" d="M93.4,354.6c-14.8,0-26.8,12-26.8,26.8c0,14.4,11.5,26.2,25.7,26.8v77.2c0,0.6,0.5,1,1,1
					c0.6,0,1-0.5,1-1v-77.2c14.3-0.5,25.7-12.3,25.7-26.8C120.2,366.6,108.2,354.6,93.4,354.6 M93.4,406.1c-13.6,0-24.7-11.1-24.7-24.7
					s11.1-24.7,24.7-24.7c13.6,0,24.7,11.1,24.7,24.7S107,406.1,93.4,406.1"></path>
			    <path id="XMLID_17_" class="st6" d="M97.2,398.7l-1.2-1.9l-2.6-4.2l-2.6,4.2l-1.2,1.9l0,0c-0.4,0.6-0.6,1.3-0.6,2.1
					c0,2.3,2,4.1,4.5,4.1s4.5-1.8,4.5-4.1C97.9,400,97.6,399.3,97.2,398.7L97.2,398.7z"></path>
			    <path id="XMLID_16_" class="st6" d="M80.3,393.3L80.3,393.3l1.1-2l2.3-4.4l-4.9-0.2l-2.3-0.1c-0.7,0-1.5,0.1-2.1,0.5
					c-2,1.1-2.6,3.8-1.3,5.9c1.2,2.1,3.8,3,5.8,1.8C79.5,394.5,80,394,80.3,393.3"></path>
			    <path id="XMLID_15_" class="st6" d="M88.1,398.3L88,396l-0.2-4.9l-4.4,2.3l-2,1.1l0,0c-0.7,0.3-1.2,0.8-1.6,1.5
					c-1.1,2-0.3,4.6,1.8,5.8c2.1,1.2,4.8,0.6,5.9-1.3C87.9,399.7,88.1,399,88.1,398.3L88.1,398.3z"></path>
			  </g>
			  <g id="Layer_15">
			    <path id="XMLID_11_" class="st7" d="M-1.8,369.5c-1.6-1.4-5.3,0.3-8.3,3.7c-0.9,1-1.6,2.1-2.2,3.1c0-1.2-0.1-2.4-0.3-3.8
					c-0.9-4.5-3.3-7.8-5.4-7.3c-2.1,0.4-3,4.4-2.1,8.9c0.4,1.7,0.9,3.3,1.6,4.5c-1.9,2.2-2.6,4.8-1.5,5.8s3.6-0.1,5.5-2.3
					c0.4-0.5,0.8-1,1.1-1.5c0,0.6,0.1,1.2,0.2,1.9c0.6,2.9,2.2,5,3.7,4.7c1.4-0.3,2.1-2.9,1.5-5.7c1.2-0.7,2.5-1.8,3.6-3.1
					C-1.3,374.8-0.2,370.9-1.8,369.5 M-18,368.9c-0.5-0.1-0.8-0.7-0.7-1.2c0.1-0.5,0.6-0.8,1.2-0.7c0.5,0.1,0.8,0.6,0.7,1.2
					C-17,368.8-17.5,369.1-18,368.9 M-3.6,372.7c-0.5-0.1-0.8-0.7-0.7-1.2c0.1-0.5,0.7-0.8,1.2-0.7c0.5,0.1,0.8,0.6,0.7,1.1
					C-2.6,372.6-3.1,372.9-3.6,372.7"></path>
			  </g>
			  <path class="st6" d="M222.3,498c2.6-3.6,3.8-7.3,3.4-10.9c-2.3-22.4-64.2-34.4-138.3-26.8C31.6,466.1-15.2,481.3-33.9,498H222.3z"></path>
			  <path class="st0" d="M489.8,498c-24.8-21-92-35.5-170.7-34.6c-73.8,0.9-137.1,15.1-164.8,34.6H489.8z"></path>
			  <g id="Layer_11">
			    <path id="XMLID_36_" class="st8" d="M132.5,447.6L132.5,447.6c0.7-1.2,2.1-1.3,2.1-1.3s-1.4-0.6-1.7-1.7l0,0c-0.5-1.7-2-3.1-4-3.5
					c-2.7-0.5-5.3,1-5.8,3.3c-0.1,0.3-0.1,0.6-0.1,0.8c-2.5,1.2-4.3,3.7-4.3,6.7c0,3.5,2.5,6.5,5.8,7.2l-0.2,1.7
					c-0.2,0.1-0.3,0.2-0.3,0.4c-0.1,0.3,0.1,0.5,0.4,0.6c0.3,0.1,0.6-0.1,0.6-0.4c0-0.2,0-0.4-0.1-0.5l0.6-1.7c0.2,0,0.5,0,0.7,0
					c0.4,0,0.8,0,1.2-0.1l0,0l1.1,1.9c-0.1,0.1-0.1,0.3-0.1,0.5c0.1,0.3,0.4,0.4,0.7,0.3c0.3-0.1,0.4-0.4,0.3-0.7
					c-0.1-0.2-0.2-0.3-0.4-0.3l-0.6-2c3-1,5.1-3.7,5.1-7c0-1.5-0.4-2.8-1.2-4C132.3,447.9,132.4,447.8,132.5,447.6 M131.2,445.4
					c-0.2,0.1-0.5-0.1-0.6-0.3c-0.1-0.3,0.1-0.5,0.3-0.6c0.3-0.1,0.5,0.1,0.6,0.3C131.6,445,131.5,445.3,131.2,445.4"></path>
			  </g>
			  <g id="Layer_12">
			    <path id="XMLID_33_" class="st8" d="M117.1,460.2c0-2.7-1.9-4.9-4.5-5.3c0-0.1-0.1-0.2-0.1-0.3c-0.8-1.6-3-2.1-4.8-1.1
					c-1.4,0.7-2.1,2-2.1,3.3l0,0c0,0.8-0.9,1.5-0.9,1.5s1-0.3,1.7,0.5c-0.1,0.5-0.2,1-0.2,1.5c0,2.7,2,4.9,4.5,5.4l-0.1,1.2
					c-0.1,0-0.2,0.1-0.3,0.3c0,0.2,0.1,0.4,0.3,0.5c0.2,0,0.4-0.1,0.5-0.3c0-0.1,0-0.3-0.1-0.4l0.4-1.2c0.1,0,0.2,0,0.2,0
					c0.2,0,0.3,0,0.5,0l0.5,1.2c-0.1,0.1-0.1,0.2-0.1,0.4c0,0.2,0.3,0.3,0.5,0.3s0.3-0.3,0.3-0.5c0-0.1-0.1-0.2-0.3-0.3l-0.1-1.2
					C115.3,464.9,117.1,462.8,117.1,460.2 M107,456.6c-0.2,0-0.4-0.2-0.4-0.4c0-0.2,0.2-0.4,0.4-0.4s0.4,0.2,0.4,0.4
					C107.4,456.4,107.2,456.6,107,456.6"></path>
			  </g>
			  <g id="Layer_14">
			    <path id="XMLID_39_" class="st8" d="M50.9,431c-1-1.5-1.7-2.7-2.7-2.8c-1-0.2-1.8,0.4-3.2,1.7c0,0-4.8,4.2-10.7,9.2l-5.2,4.3
					c-6.2,5-19.7,6.5-22.9,1c0.2,1.1,0.4,2.1,0.7,3.2c-1.4-0.6-2.4-1.5-3.1-2.6c2.2,13,10.8,22.9,21.4,23.7l0.4,3.4
					c-0.3,0.2-0.5,0.5-0.5,0.9c0,0.6,0.5,1,1,1c0.6,0,1-0.5,1-1c0-0.4-0.2-0.7-0.5-0.9l0.4-3.3h3l0.4,3.3c-0.3,0.2-0.5,0.5-0.5,0.9
					c0,0.6,0.5,1,1,1c0.6,0,1-0.5,1-1c0-0.4-0.2-0.7-0.5-0.9l0.4-3.4c9.3-0.9,16.6-8.7,16.6-18.2v-4.3c0,0-0.3-14.9,3.9-14.5L50.9,431z
					 M47.9,432.4c-0.4,0-0.8-0.3-0.8-0.8c0-0.4,0.3-0.8,0.8-0.8c0.4,0,0.8,0.3,0.8,0.8C48.7,432,48.3,432.4,47.9,432.4"></path>
			  </g>
			  <g id="Layer_4">
			    <path id="XMLID_56_" class="st3" d="M436,420.5c1-0.2,2-0.4,3-0.6l0,0c-9.5,5.3-16.9,14.3-21.4,25.4c8.1-13.1,22.9-21.6,39.4-21.8
					c-12,4.3-22.4,12.7-29.7,23.7c8-8.6,19.4-13.9,32-13.9c1.2,0,2.4,0.1,3.6,0.1l0,0c-12.7,2.7-23.8,9.4-32,18.7
					c9.8-4.7,21.8-3.1,30.5,4.2c-11.1-3.8-23.6-2-33,6c-6.9,5.9-10.8,14.2-11.6,22.8c-0.1,1.2-0.1,2.5-0.2,3.7c0,0.2,0,0.4,0,0.6
					c0,0,0-0.1-0.1-0.1v0.1l0,0c0-0.1,0-0.1,0-0.2c-1.4-2.5-2.5-5.1-3.4-7.8c0.4,2.8,0.9,5.7,1.5,8.6l0,0c-1.7-3.8-3.2-7.9-4.2-12.2
					C404.2,451.1,415.6,425.4,436,420.5"></path>
			  </g>
			  <circle id="circle" class="st8" cx="47.9" cy="431.6" r="0.8"></circle>
			</svg>
